<?xml version="1.0" encoding="UTF-8" standalone="no"?>
<!DOCTYPE svg PUBLIC "-//W3C//DTD SVG 1.1//EN" "http://www.w3.org/Graphics/SVG/1.1/DTD/svg11.dtd">
<svg width="100%" height="100%" viewBox="0 0 3662 3662" version="1.1" xmlns="http://www.w3.org/2000/svg" xmlns:xlink="http://www.w3.org/1999/xlink" xml:space="preserve" xmlns:serif="http://www.serif.com/" style="fill-rule:evenodd;clip-rule:evenodd;stroke-linejoin:round;stroke-miterlimit:2;">
    <g transform="matrix(1,0,0,1,-4219.64,-4296.91)">
        <g id="Artboard1" transform="matrix(1.03333,0,0,0.895437,4219.64,4454.39)">
            <rect x="0" y="-175.867" width="3543.31" height="4088.97" style="fill:none;"/>
            <g transform="matrix(4.03226,0,0,4.65322,-441.227,-466.617)">
                <path d="M922.115,92.021C832.477,151.472 723.356,254.142 671.842,327.5C638.652,374.763 630.451,396.735 629.101,442C628.335,467.699 621.626,454.199 619.162,422L618.435,412.5L614.841,419.5C601.136,446.195 587.04,487.214 578.07,526.5C577.065,530.9 574.341,542.825 572.017,553C566.442,577.401 565.591,577.853 566.363,556C567.509,523.601 572.154,498.41 582.103,470.636C586.092,459.5 586.092,459.5 582.796,456.636C569.244,444.859 547.136,435.2 520.75,429.529C511.208,427.478 511.064,427.877 522.75,423.981C636.919,385.92 684.399,273.534 608.483,221.053C511.513,154.018 250.664,214.212 204.516,314.273C189.612,346.588 198.193,386.2 223.115,400.129C229.464,403.677 236,406.144 236,404.992C236,404.446 235.623,404 235.162,404C230.919,404 225.678,382.857 226.239,368C231.364,232.218 569.754,147.48 587.075,277.641C595.27,339.219 544.94,402.389 473.277,420.471C458.75,424.136 422.287,427.379 419.28,425.273C418.368,424.635 421.316,414.797 430.907,386.459C462.025,294.524 466.18,283.246 476.758,262C481.003,253.475 484.609,246.228 484.772,245.896C486.956,241.457 457.355,252.334 445.5,260.327C418.495,278.535 410.039,293.417 385.609,365.731C327.848,536.708 293.536,616.477 265.329,645.367C258.536,652.325 260.4,652.415 234.531,643.874C194.867,630.778 170.459,633.961 161.02,653.459C151.111,673.927 171.518,683.659 222,682.541C254.749,681.815 255.167,681.847 300,688.373C396.499,702.421 468.825,691.903 520.997,656.235C526.789,652.274 526.773,652.095 521.635,663.097C496.574,716.76 484.979,738.047 477.797,743.583C472.5,747.667 472.5,747.667 472.82,756.31C473.188,766.273 471.19,769.206 447.139,794C435.013,806.5 435.013,806.5 434.987,820.5C434.944,843.473 431.308,869.308 423.338,903.269C418.814,922.545 420.455,926.526 428.227,915.13C446.969,887.647 471.369,861.286 492.72,845.453C506.149,835.495 505.581,836.347 505.865,825.746C506.122,816.14 507.812,802.01 510.57,786.415C512.177,777.33 512.177,777.33 517.614,774.663C523.849,771.605 525.428,768.82 524.7,762.164C524.106,756.731 525.707,750.603 530.228,741C532.171,736.875 537.354,725.85 541.748,716.5C576.417,642.715 577.255,641.271 587.645,637.469C615.642,627.222 646.94,608.971 669,590.028C672.5,587.022 672.5,587.022 666.282,589.506C657.083,593.181 645.12,596.466 630.5,599.331C609.67,603.414 603.495,603.534 615.193,599.629C641.687,590.785 677.505,570.235 705.857,547.614C721.549,535.094 756.289,501 753.355,501C752.884,501 745.149,502.573 736.166,504.495C720.358,507.877 695.755,512.208 685.5,513.413C679.251,514.147 679.503,514.04 706.5,504.474C770.069,481.95 775.7,478.076 805.272,436.536C820.225,415.53 839.666,383.147 836.622,384.315C822.776,389.628 781.831,400.082 765.601,402.447C755.154,403.969 751.238,403.98 756.175,402.472C803.56,388 846.039,362.716 858.48,341.578C870.662,320.879 895,263.423 895,255.363C895,255.271 890.163,257.897 884.25,261.199C861.489,273.913 844.213,281.487 823.5,287.837C806.793,292.958 806.872,292.539 824.5,282.525C897.447,241.088 905.649,232.803 920.331,185.725C929.596,156.016 938.985,104.479 938.999,83.25C939.001,81.04 937.488,81.826 922.115,92.021M856.376,187.264C844.757,200.044 833.329,212.75 830.98,215.5C828.63,218.25 822.611,224.984 817.604,230.466C802.647,246.838 799.764,250.091 791.961,259.401C787.857,264.296 780.069,273.521 774.654,279.901C690.415,379.139 601.287,523.005 535.687,665.632C520.912,697.755 502.883,743.029 504.883,742.987C507.944,742.923 525.71,710.35 560.51,641C633.251,496.039 679.406,419.34 754.768,318.188C776.762,288.667 787.986,274.333 813.545,243.122C819.57,235.764 825.616,228.339 826.981,226.622C828.345,224.905 837.345,214.095 846.981,202.6C870.716,174.286 878.96,163.947 877.75,164.014C877.612,164.022 867.994,174.484 856.376,187.264M430,445.613C427.525,445.811 421.877,446.237 417.449,446.56C409.398,447.146 409.398,447.146 406.571,454.823C354.246,596.924 335.162,630.427 291.909,656.123C283.346,661.211 283.253,661.111 300.511,665.39C419.35,694.858 517.257,654.866 546.873,564.758C573.927,482.445 529.966,437.631 430,445.613M466.267,812.25C465.123,813.487 461.89,821.336 459.085,829.692C454.444,843.51 446.729,862.523 440.483,875.531C437.053,882.674 431.925,895.258 432.294,895.627C432.465,895.798 436.628,887.965 441.546,878.219C455.233,851.092 460.584,841.523 469.138,828.878C477.536,816.465 477.844,815.65 475.443,812.223C473.395,809.298 468.985,809.312 466.267,812.25" style="fill:rgb(156,140,135);"/>
            </g>
        </g>
    </g>
</svg>
